
<svg width="40px" height="40px" viewBox="0 0 40 40" version="1.1" xmlns="http://www.w3.org/2000/svg" xmlns:xlink="http://www.w3.org/1999/xlink">
    <g id="运单号逻辑优化-9.26" stroke="none" stroke-width="1" fill="none" fill-rule="evenodd">
        <g id="详情页交互" transform="translate(-291.000000, -642.000000)">
            <g id="清关中" transform="translate(291.000000, 642.000000)">
                <rect id="矩形备份-19" fill="#1688EE" x="0" y="0" width="40" height="40" rx="20"></rect>
                <g id="编组-29" transform="translate(8.000000, 8.000000)">
                    <rect id="矩形备份-32" x="0" y="0" width="24" height="24"></rect>
                    <path d="M12.8349888,4 C13.329797,4 13.7163659,4.41385768 13.7163659,4.90730337 C13.7163659,5.40074906 13.329797,5.81460674 12.8349888,5.81460674 L12.834,7.645 L15.4327317,7.64513109 C15.9275399,7.64513109 16.3141088,8.05898876 16.3141088,8.55243446 C16.3141088,9.04588015 15.9120771,9.45973783 15.4327317,9.45973783 L12.834,9.459 L12.8350341,16.5745598 C14.8112119,16.2851408 16.5059543,15.0356689 17.4224873,13.2615826 L16.6852149,13.5983146 C16.236795,13.8052434 15.7110613,13.5983146 15.5100455,13.1367041 C15.3090297,12.6750936 15.5100455,12.1338951 15.9584654,11.9269663 L18.5716711,10.7172285 C19.020091,10.5102996 19.5458246,10.7172285 19.7468405,11.178839 L20.9220099,13.8689139 C21.1230257,14.3305243 20.9220099,14.8717228 20.47359,15.0786517 C20.3344252,15.1423221 20.2107231,15.1741573 20.1024838,15.1741573 C19.7623032,15.1741573 19.4375854,14.9672285 19.2984206,14.6329588 L19.0363358,14.0227674 C17.8286123,16.4200322 15.5138445,18.0984332 12.8349325,18.4032955 L12.8349888,20.0926966 C12.8349888,20.5861423 12.4484199,21 11.9536117,21 C11.4588036,21 11.0722347,20.5861423 11.0722347,20.0926966 L11.0721711,18.4027578 C8.43987034,18.1002471 6.14195055,16.4597989 4.9183192,14.1093569 L4.68611669,14.6329588 C4.54695189,14.9672285 4.22223402,15.1741573 3.88205341,15.1741573 C3.75835136,15.1741573 3.63464932,15.1423221 3.52641003,15.0945693 C3.07799012,14.8876404 2.8769743,14.3464419 3.07799012,13.8848315 L4.25315954,11.1947566 C4.45417536,10.7331461 4.97990904,10.5262172 5.42832895,10.7331461 L8.04153461,11.9428839 C8.48995452,12.1498127 8.69097034,12.6910112 8.48995452,13.1526217 C8.2889387,13.6142322 7.76320502,13.821161 7.31478511,13.6142322 L6.482807,13.2350084 C7.40041608,15.0147868 9.10775769,16.2782365 11.0722041,16.5728807 L11.072,9.459 L8.47449176,9.45973783 C7.97968359,9.45973783 7.59311471,9.04588015 7.59311471,8.55243446 C7.59311471,8.05898876 7.99514635,7.64513109 8.47449176,7.64513109 L11.072,7.645 L11.0722347,5.81460674 C10.5774265,5.81460674 10.1908576,5.40074906 10.1908576,4.90730337 C10.1908576,4.41385768 10.5928893,4 11.0722347,4 L12.8349888,4 Z" id="Combined-Shape备份-8" fill="#FFFFFF" fill-rule="nonzero"></path>
                </g>
            </g>
        </g>
    </g>
</svg>