
<svg width="40px" height="40px" viewBox="0 0 40 40" version="1.1" xmlns="http://www.w3.org/2000/svg" xmlns:xlink="http://www.w3.org/1999/xlink">
    <g id="运单号逻辑优化-9.26" stroke="none" stroke-width="1" fill="none" fill-rule="evenodd">
        <g id="详情页交互" transform="translate(-167.000000, -624.000000)">
            <g id="仓库处理中" transform="translate(167.000000, 624.000000)">
                <rect id="矩形备份-17" fill="#1688EE" x="0" y="0" width="40" height="40" rx="20"></rect>
                <g id="编组-31" transform="translate(8.000000, 8.000000)">
                    <rect id="矩形备份-34" x="0" y="0" width="24" height="24"></rect>
                    <path d="M13.0262401,2.35568324 L19.3976687,7.52640553 C19.7787136,7.83564194 20,8.30021476 20,8.79095137 L20,19.3714286 C20,20.2708637 19.2708637,21 18.3714286,21 L5.62857143,21 C4.72913626,21 4,20.2708637 4,19.3714286 L4,8.79095137 C4,8.30021476 4.22128638,7.83564194 4.60233135,7.52640553 L10.9737599,2.35568324 C11.5718357,1.87031579 12.4281643,1.87031579 13.0262401,2.35568324 Z M13.8262649,10.3433645 C13.5138454,10.0353908 13.0109174,10.0389948 12.7029437,10.3514142 L12.7029437,10.3514142 C12.3882532,10.6706475 12.3882532,11.1798837 12.70077,11.4969118 L12.70077,11.4969118 L14.068,12.884 L8.01154834,12.8845166 C7.59781994,12.8845166 7.25640101,13.1941103 7.20632311,13.594266 L7.2,13.6960649 C7.2,14.1442707 7.56334257,14.5076133 8.01154834,14.5076133 L8.01154834,14.5076133 L14.068,14.507 L12.70077,15.8952181 C12.3882532,16.2122462 12.3882532,16.7214824 12.70077,17.0385105 L12.7029437,17.0407156 C13.0109174,17.353135 13.5138454,17.356739 13.8262649,17.0487653 L13.8343146,17.0407156 L13.8343146,17.0407156 L16.09923,14.7431051 C16.1836502,14.6574664 16.2452659,14.5578022 16.2840772,14.4516899 C16.5864678,14.3333884 16.8,14.0396632 16.8,13.6960649 C16.8,13.3524666 16.5864678,13.0587414 16.2848658,12.9403518 C16.2452659,12.8343277 16.1836502,12.7346635 16.09923,12.6490247 L16.09923,12.6490247 L13.8343146,10.3514142 L13.8343146,10.3514142 Z" id="Combined-Shape备份-7" fill="#FFFFFF"></path>
                </g>
            </g>
        </g>
    </g>
</svg>