
<svg width="40px" height="40px" viewBox="0 0 40 40" version="1.1" xmlns="http://www.w3.org/2000/svg" xmlns:xlink="http://www.w3.org/1999/xlink">
    <g id="运单号逻辑优化-9.26" stroke="none" stroke-width="1" fill="none" fill-rule="evenodd">
        <g id="详情页交互" transform="translate(-473.000000, -642.000000)">
            <g id="运输中" transform="translate(473.000000, 642.000000)">
                <rect id="矩形备份" fill="#1688EE" x="0" y="0" width="40" height="40" rx="20"></rect>
                <g id="编组-25" transform="translate(8.000000, 8.000000)">
                    <rect id="矩形备份-29" x="0" y="0" width="24" height="24"></rect>
                    <path d="M4.8,9.25 L0.8,9.25 C0.3581722,9.25 5.41083001e-17,8.8918278 0,8.45 L0,8.425 C-5.41083001e-17,7.9831722 0.3581722,7.625 0.8,7.625 L4.8,7.625 L4.8,6 L19.2,6 L19.2,9.249 L22.4,9.25 C23.2836556,9.25 24,9.9663444 24,10.85 L24,17.375 L20.8,17.374 L20.8,17.4 C20.8,18.2836556 20.0836556,19 19.2,19 C18.3163444,19 17.6,18.2836556 17.6,17.4 L17.6,17.374 L11.199,17.374 L11.2,17.4 C11.2,18.2836556 10.4836556,19 9.6,19 C8.7163444,19 8,18.2836556 8,17.4 L7.999,17.374 L4.8,17.375 L4.8,12.5 L8.8,12.5 C9.20784105,12.5 9.54440158,12.1948119 9.59376686,11.8003503 L9.6,11.7 L9.6,11.675 C9.6,11.2331722 9.2418278,10.875 8.8,10.875 L8.8,10.875 L4.8,10.875 L4.8,12.5 L2.4,12.5 C1.9581722,12.5 1.6,12.1418278 1.6,11.7 L1.6,11.675 C1.6,11.2331722 1.9581722,10.875 2.4,10.875 L4.8,10.875 L4.8,9.25 L5.6,9.25 C6.00784105,9.25 6.34440158,8.94481185 6.39376686,8.5503503 L6.4,8.45 L6.4,8.425 C6.4,8.01715895 6.09481185,7.68059842 5.7003503,7.63123314 L5.6,7.625 L4.8,7.625 L4.8,9.25 Z" id="形状结合" fill="#FFFFFF"></path>
                </g>
            </g>
        </g>
    </g>
</svg>